<svg width="25" height="24" viewBox="0 0 25 24" fill="none" xmlns="http://www.w3.org/2000/svg">
<path fill-rule="evenodd" clip-rule="evenodd" d="M4.00635 12C4.00635 11.4477 4.45406 11 5.00635 11L19.0063 11C19.5586 11 20.0063 11.4477 20.0063 12C20.0063 12.5523 19.5586 13 19.0063 13L5.00635 13C4.45406 13 4.00635 12.5523 4.00635 12Z" fill="white"/>
<path fill-rule="evenodd" clip-rule="evenodd" d="M11.2992 4.29289C11.6898 3.90237 12.3229 3.90237 12.7135 4.29289L19.7135 11.2929C20.104 11.6834 20.104 12.3166 19.7135 12.7071L12.7135 19.7071C12.3229 20.0976 11.6898 20.0976 11.2992 19.7071C10.9087 19.3166 10.9087 18.6834 11.2992 18.2929L17.5921 12L11.2992 5.70711C10.9087 5.31658 10.9087 4.68342 11.2992 4.29289Z" fill="white"/>
</svg>
